<?xml version="1.0" encoding="UTF-8"?>
<!DOCTYPE svg PUBLIC "-//W3C//DTD SVG 1.1//EN" "http://www.w3.org/Graphics/SVG/1.1/DTD/svg11.dtd">
<!-- Creator: CorelDRAW X7 -->
<svg xmlns="http://www.w3.org/2000/svg" xml:space="preserve" width="210mm" height="297mm" version="1.1" style="shape-rendering:geometricPrecision; text-rendering:geometricPrecision; image-rendering:optimizeQuality; fill-rule:evenodd; clip-rule:evenodd"
viewBox="0 0 21000 29700"
 xmlns:xlink="http://www.w3.org/1999/xlink">
 <defs>
  <style type="text/css">
   <![CDATA[
    .fil21 {fill:#065A82}
    .fil3 {fill:#1B3B6F}
    .fil20 {fill:#1C7293}
    .fil5 {fill:#21295C}
    .fil24 {fill:#2282A8}
    .fil6 {fill:#2A3473}
    .fil14 {fill:#2A569C}
    .fil15 {fill:#2E5B9A}
    .fil4 {fill:#303C60}
    .fil25 {fill:#3E6BAB}
    .fil26 {fill:#74B570}
    .fil18 {fill:#75A1DE}
    .fil23 {fill:#7A4E34}
    .fil13 {fill:#93BBF0}
    .fil29 {fill:#94BDF2}
    .fil9 {fill:#96CFE0}
    .fil27 {fill:#9CD499}
    .fil2 {fill:#9EB3C2}
    .fil30 {fill:#9EC8FF}
    .fil8 {fill:#A2DFF2}
    .fil22 {fill:#A86B48}
    .fil12 {fill:#A8CEFF}
    .fil1 {fill:#D3E2ED}
    .fil17 {fill:#D54A41}
    .fil10 {fill:#E38540}
    .fil32 {fill:#E7F3FE}
    .fil7 {fill:#F09959}
    .fil19 {fill:#F2E5DE}
    .fil16 {fill:#F37168}
    .fil31 {fill:#F39892}
    .fil11 {fill:#F5DC95}
    .fil34 {fill:#FAE8B6}
    .fil28 {fill:#FAEECA}
    .fil33 {fill:#FFB8B3}
    .fil0 {fill:white}
   ]]>
  </style>
 </defs>
 <g id="Layer_x0020_1">
  <metadata id="CorelCorpID_0Corel-Layer"/>
  <polygon class="fil0" points="20548,16021 581,16021 581,3542 20548,3542 "/>
  <path class="fil1" d="M3907 5414c2574,-955 5190,-110 6964,1730 888,920 2263,602 3663,284 1399,-318 2823,-635 3810,283 1348,1253 730,4477 -1118,5873 -2511,1897 -11869,1954 -13421,1303 -2653,-1113 -17,-3173 -1256,-5148 -1461,-2331 221,-3902 1358,-4325z"/>
  <path class="fil2" d="M18395 14338c-1288,-63 -5671,44 -7004,86 -1333,41 -2880,-55 -3684,-197 -804,-142 -5450,12 -5239,393 211,382 2070,171 4178,324 2109,154 6850,-19 7920,0 1070,20 2050,-38 3429,-115 1378,-76 1147,-454 400,-491z"/>
  <path class="fil3" d="M14621 7013l-131 -203c-38,5 -77,7 -116,7 -58,0 -115,-5 -170,-14l-141 195c-70,-18 -136,-42 -200,-71l13 -240c-84,-48 -160,-107 -227,-175l-22 7 0 -1487 60 24c70,-65 150,-120 236,-162l0 -242c65,-25 133,-45 203,-60l131 203c39,-5 77,-7 117,-7 58,0 114,5 169,14l142 -195c69,18 136,42 200,71l-13 241c84,47 160,106 227,174l229 -75c45,55 85,113 120,175l-152 187c40,86 67,178 82,275l229 74c1,24 2,49 2,74 0,47 -3,93 -8,138l-233 62c-19,96 -51,186 -95,270l142 195c-39,60 -82,116 -130,168l-225 -87c-70,65 -149,120 -235,163l0 241c-65,25 -134,46 -204,60zm-247 -1695c-268,0 -485,217 -485,485 0,267 217,484 485,484 267,0 484,-217 484,-484 0,-268 -217,-485 -484,-485z"/>
  <path class="fil0" d="M15035 6362c-6,0 -12,-2 -16,-6 -11,-9 -12,-24 -4,-35 121,-145 188,-329 188,-518 0,-91 -15,-180 -44,-265 -5,-13 2,-27 15,-31 13,-5 27,2 32,15 31,90 46,185 46,281 0,200 -70,396 -198,550 -5,6 -12,9 -19,9z"/>
  <path class="fil0" d="M14964 5219c-6,0 -12,-3 -17,-7 -81,-77 -175,-134 -279,-172 -13,-5 -20,-19 -15,-32 5,-13 19,-20 32,-15 111,40 210,101 297,182 10,10 10,26 1,36 -5,5 -12,8 -19,8z"/>
  <path class="fil0" d="M14186 5017c-11,0 -21,-8 -24,-19 -4,-14 4,-27 18,-30 69,-18 140,-27 211,-27 14,0 25,12 25,25 0,14 -11,25 -25,25 -67,0 -134,9 -199,25 -2,0 -4,1 -6,1z"/>
  <path class="fil3" d="M13546 7638l0 -1092 81 -27 0 1104c-27,5 -54,10 -81,15zm81 -2606l-81 -31 0 -292 -7263 0 0 312c-66,-2 -132,-3 -198,-3 -59,0 -118,0 -178,2l0 -424 7720 0 0 436z"/>
  <path class="fil3" d="M13627 9233l-7720 0 0 -4213c60,-2 119,-2 178,-2 66,0 132,1 198,3l0 3945 7263 0 0 -1328c27,-5 54,-10 81,-15l0 1610z"/>
  <polygon class="fil3" points="13546,6546 13546,5001 13627,5032 13627,6519 "/>
  <polygon class="fil0" points="13546,8966 6283,8966 6283,4709 13546,4709 "/>
  <path class="fil4" d="M12476 6909c346,-330 938,-322 925,180 -12,501 29,548 172,812 494,913 -589,859 -1041,889 -452,30 -414,-821 -334,-1293 79,-472 177,-492 278,-588z"/>
  <path class="fil5" d="M12638 9785c-111,932 -313,1621 -335,2063 -23,441 -113,2181 -113,2181 0,0 247,-17 270,-55 22,-37 464,-1018 442,-1625 -23,-606 441,-1528 441,-1528l-112 -905 -593 -131z"/>
  <path class="fil6" d="M12744 10191l-173 73c-48,295 -100,561 -146,796 276,179 419,774 480,1137 31,-407 223,-898 342,-1170l-503 -836z"/>
  <path class="fil5" d="M13545 9691c0,0 374,477 363,1019 -18,824 -108,1059 48,1923 61,337 -134,1441 -134,1441 0,0 -168,13 -258,-32 8,-81 -108,-1400 -333,-2007 -109,-293 -262,-1116 -344,-1587 -83,-472 -98,-569 -68,-569 30,0 726,-188 726,-188z"/>
  <path class="fil7" d="M11415 8366c0,0 16,-246 -10,-323 -27,-76 -257,-142 -257,-142 0,0 -10,352 14,396 23,43 159,166 159,166l94 -97z"/>
  <path class="fil8" d="M12706 8187c-526,566 -698,804 -737,804 -125,-221 -540,-687 -540,-687l-177 114c0,0 409,1067 668,1078 260,11 788,-368 794,-411 7,-44 -8,-898 -8,-898z"/>
  <path class="fil9" d="M12157 9441c258,-105 552,-324 557,-356 7,-44 -8,-898 -8,-898 -115,123 -215,232 -302,328 -94,351 -88,733 -247,926z"/>
  <path class="fil8" d="M13240 7814c0,0 503,252 613,699 110,446 -215,998 -255,1292 -40,294 -959,346 -959,31 0,-302 -230,-943 -217,-1107 31,-383 591,-852 591,-852l227 -63z"/>
  <path class="fil7" d="M13094 7236l216 666c0,0 -231,178 -626,606 16,-285 254,-596 254,-596l-163 -629 319 -47z"/>
  <path class="fil10" d="M13195 7546l-101 -310 -319 47 163 629c0,0 -15,26 -39,66 154,-114 248,-257 296,-432z"/>
  <path class="fil7" d="M12975 7386c-58,212 -284,329 -444,285 -161,-44 -195,-233 -137,-444 59,-212 236,-349 396,-304 160,44 243,251 185,463z"/>
  <path class="fil8" d="M12599 9537c70,444 -189,1392 -189,1392 0,0 154,35 619,-10 464,-45 669,-508 738,-521 70,-13 106,431 141,466 34,35 39,-561 -51,-795 -159,-415 -128,-592 -68,-843 106,-448 -1190,311 -1190,311z"/>
  <path class="fil3" d="M12201 13811c42,170 -40,304 -151,403 -90,79 -366,113 -352,153 13,40 339,53 449,36 110,-16 140,-70 276,-70 90,0 106,-72 67,-162 -40,-91 -54,-140 -18,-221 36,-81 -271,-139 -271,-139z"/>
  <path class="fil3" d="M13831 13811c-6,176 -27,307 16,389 167,140 306,299 253,310 -253,52 -349,-100 -492,-143 -176,-53 16,-273 -52,-556 -39,-158 265,-120 265,-120l10 120z"/>
  <path class="fil9" d="M13895 10214c-10,-56 -23,-106 -38,-145 -159,-415 -128,-592 -68,-843 4,-20 6,-37 6,-53 13,-45 26,-90 37,-136l-55 -489 -390 -464c-293,429 -96,963 -140,1258 -44,294 -535,670 -535,670l16 104c22,143 155,243 299,223 202,-28 468,-84 586,-194 114,-106 215,-24 282,69z"/>
  <path class="fil7" d="M12827 9995c0,0 -216,60 -242,74 -26,13 -41,85 -41,85 0,0 -124,108 -76,146 47,38 132,135 244,90 69,-28 123,-281 168,-283 45,-2 -53,-112 -53,-112z"/>
  <path class="fil8" d="M13441 8027c232,7 442,424 516,787 73,362 150,877 150,877 0,0 -384,304 -764,392 -332,78 -501,108 -501,108l-67 -189 793 -466c0,0 -292,-549 -321,-963 -29,-415 18,-551 194,-546z"/>
  <polygon class="fil11" points="11284,8185 10705,8301 10632,7933 11210,7817 "/>
  <path class="fil7" d="M11276 8337c8,-152 -68,-359 -111,-359 -43,0 13,136 -10,225 -13,49 121,134 121,134z"/>
  <path class="fil4" d="M12437 6989c13,416 498,384 632,358 133,-25 -162,878 91,930 186,38 144,-253 351,-234 92,9 184,150 184,150 0,0 -14,-87 -84,-150 -70,-63 -253,-449 -301,-725 -48,-276 -375,-455 -471,-460 -97,-6 -333,104 -333,104l-69 27z"/>
  <path class="fil4" d="M13156 8371c-7,0 -13,-1 -20,-2 -81,-17 -121,-103 -124,-269 -3,-142 21,-324 45,-517 11,-78 21,-159 29,-237 1,-7 7,-12 14,-11 7,1 11,7 11,14 -9,78 -19,159 -29,237 -49,374 -94,727 59,759 5,1 9,2 14,2 88,0 167,-172 213,-338 2,-7 9,-10 15,-9 6,2 10,9 8,15 -30,110 -112,356 -235,356z"/>
  <path class="fil4" d="M13123 8468c-27,0 -51,-11 -72,-32 -165,-175 -1,-1054 6,-1091 1,-7 7,-11 14,-10 6,1 11,8 10,14 -2,9 -169,904 -12,1070 18,19 40,27 66,24 86,-12 136,-128 180,-231 42,-100 82,-195 153,-192 7,0 12,6 12,12 0,7 -6,13 -12,12 -1,0 -2,0 -2,0 -54,0 -90,86 -129,177 -46,109 -99,233 -199,246 -5,0 -10,1 -15,1z"/>
  <path class="fil7" d="M13087 7427c-35,44 -88,60 -120,35 -32,-25 -30,-81 4,-125 34,-44 88,-59 120,-35 32,25 30,81 -4,125z"/>
  <path class="fil4" d="M9311 8967c119,238 21,511 -212,607 -235,97 -492,42 -611,-195 -118,-237 -30,-522 197,-635 227,-114 508,-14 626,223z"/>
  <path class="fil4" d="M8672 9603c-26,0 -78,-9 -143,-68 -54,-47 -93,-121 -109,-206 -21,-107 -7,-231 40,-367 2,-7 9,-10 15,-8 7,2 10,9 8,16 -46,132 -59,251 -39,355 15,80 51,148 101,192 83,74 139,61 139,60 7,-1 13,3 15,9 2,6 -2,13 -8,15 -1,0 -8,2 -19,2z"/>
  <path class="fil12" d="M9035 9890c135,31 305,406 389,646 84,243 227,543 320,637 93,93 707,310 707,310 0,0 -1517,3 -1486,0 32,-3 70,-1592 70,-1593z"/>
  <path class="fil13" d="M9840 11362c-83,-12 -383,27 -255,-26 128,-54 110,-122 110,-122 0,0 -181,151 -214,19 -28,-114 -39,-517 -145,-920 -89,-201 -204,-401 -301,-422 0,-1 -4,142 -9,341 37,441 100,1089 116,1252 201,0 538,0 819,0l188 -9c0,0 -226,-101 -309,-113z"/>
  <path class="fil12" d="M8538 9807c0,0 -429,240 -529,291 -100,51 280,1549 365,1613 85,65 830,11 915,-69 84,-81 -66,-330 8,-826 73,-497 -224,-926 -262,-925 -38,0 -288,-84 -288,-84l-209 0z"/>
  <path class="fil13" d="M8374 11711c85,65 618,66 845,-5 25,-8 142,-54 144,-98 -27,-5 -136,8 -180,-2 -153,-35 -238,-225 -238,-225 0,0 -84,-31 -274,-111 -189,-80 -111,-322 -115,-429 -5,-107 -187,-456 -530,-721l-31 14c-25,244 301,1518 379,1577z"/>
  <path class="fil3" d="M11324 10536l-1034 0 -471 1002 1139 0 427 -907c20,-44 -12,-95 -61,-95z"/>
  <path class="fil14" d="M9881 11553l-622 0c-39,0 -70,-32 -70,-70 0,-39 31,-70 70,-70l577 0 391 -841c16,-35 58,-50 93,-34 35,17 50,58 34,93l-410 881c-11,25 -36,41 -63,41z"/>
  <path class="fil7" d="M8802 11339c270,50 336,112 483,136 167,27 147,63 23,63 -123,0 -435,5 -542,-19 -106,-23 36,-180 36,-180z"/>
  <path class="fil12" d="M7975 10126c-207,662 -500,1412 -453,1412 46,0 1234,48 1281,8 47,-40 33,-193 27,-213 -7,-20 -676,-139 -676,-139 0,0 88,-171 122,-507 33,-335 -262,-686 -301,-561z"/>
  <path class="fil7" d="M8696 9233l-167 609c0,0 282,439 359,400 77,-39 -43,-357 -43,-400 0,-44 120,-490 120,-490l-269 -119z"/>
  <path class="fil10" d="M8851 9873c-4,-15 -6,-26 -6,-31 0,-44 120,-490 120,-490l-269 -119 -55 201c48,208 135,347 210,439z"/>
  <path class="fil7" d="M9319 9223c32,176 11,411 -146,470 -157,60 -345,-54 -422,-255 -76,-200 -10,-411 146,-470 157,-60 384,44 422,255z"/>
  <path class="fil7" d="M8789 9322c22,62 2,125 -43,141 -46,16 -100,-21 -122,-82 -22,-62 -3,-125 42,-142 46,-16 101,21 123,83z"/>
  <path class="fil4" d="M9321 9001c-53,414 -557,361 -557,361 0,0 -104,-137 -150,-65 -47,71 65,-420 353,-436 95,-5 354,140 354,140z"/>
  <path class="fil4" d="M8809 8825c0,142 -122,256 -272,256 -151,0 -273,-114 -273,-256 0,-141 122,-255 273,-255 150,0 272,114 272,255z"/>
  <polygon class="fil15" points="7994,14549 8056,14549 8459,12684 8321,12684 "/>
  <polygon class="fil15" points="9932,14549 9870,14549 9401,12618 9538,12618 "/>
  <path class="fil15" d="M8705 12754c-250,0 -408,-45 -509,-144 -125,-121 -151,-310 -151,-556 -1,-194 -5,-320 -16,-422 -4,-39 24,-73 63,-77 38,-4 72,24 76,62 11,107 16,238 16,436 1,250 32,382 110,457 79,78 222,109 464,103 233,-6 394,-38 523,-64 170,-35 293,-60 438,10 35,16 50,58 33,93 -17,35 -58,49 -93,33 -103,-50 -191,-32 -350,1 -135,27 -302,61 -548,67 -19,0 -38,1 -56,1z"/>
  <path class="fil15" d="M8138 11546l382 16 -102 1056c0,0 -285,-182 -280,-378 4,-195 0,-694 0,-694z"/>
  <path class="fil7" d="M10025 11645c323,-49 433,-34 631,334 198,369 461,1032 613,1117 228,129 303,445 397,431 94,-14 154,27 52,112 -102,85 -267,157 -323,142 -56,-15 -100,-258 -247,-337 -147,-79 -102,-144 -93,-214 10,-70 -429,-391 -760,-791 -202,-244 -306,-406 -321,-552 -15,-146 51,-242 51,-242z"/>
  <path class="fil10" d="M10826 12980c-75,-191 -150,-505 -221,-793 -100,-410 -206,-507 -273,-551 -81,-20 -176,-11 -307,9 0,0 -66,96 -51,242 15,146 119,308 321,552 175,210 379,399 531,541z"/>
  <path class="fil15" d="M10123 11969c0,0 -86,649 -166,715 -57,47 -98,50 -138,-143 -40,-194 63,-916 63,-916l241 344z"/>
  <polygon class="fil7" points="10055,12320 9259,12454 9708,11809 10050,11740 10255,11787 "/>
  <path class="fil15" d="M11055 13230c-26,104 -23,181 22,219 45,39 215,325 215,325l52 -8 -122 -262 -167 -274z"/>
  <path class="fil15" d="M11395 13781c56,15 221,-57 323,-142 102,-85 42,-126 -52,-112 -5,1 -11,1 -16,-1 -47,105 -200,183 -250,73 -49,-110 -260,-327 -345,-374 0,2 0,4 0,5 -9,70 -54,135 93,214 147,79 191,322 247,337z"/>
  <path class="fil10" d="M8400 11671c-282,507 -89,829 254,862 343,32 885,-30 1201,-293 316,-262 575,-540 539,-581 -36,-42 -1994,12 -1994,12z"/>
  <path class="fil7" d="M10002 12049c58,-174 124,-307 253,-309 136,-3 220,68 225,290 7,264 17,1140 4,1529 -9,295 77,390 70,697 -6,231 241,114 146,234 -66,83 -261,56 -381,41 -106,-14 56,-334 -92,-419 -127,-74 -129,-193 -49,-283 80,-91 8,-357 -45,-544 -53,-187 -136,-389 -190,-831 -16,-126 23,-299 59,-405z"/>
  <path class="fil15" d="M10615 14396c-41,12 -91,26 -135,28 -89,3 -116,-95 -121,-228 -6,-116 -90,-299 -176,-373 -2,2 -4,4 -5,6 -80,90 -78,209 49,283 148,85 -14,405 92,419 120,15 315,42 381,-41 62,-78 -15,-84 -85,-94z"/>
  <path class="fil15" d="M10198 13796c0,0 -130,135 -118,192 12,56 52,198 58,308 7,110 13,236 13,236 0,0 47,0 50,-14 4,-13 30,-446 30,-446l-33 -276z"/>
  <path class="fil3" d="M8264 11625c0,0 -167,711 44,908 212,197 1091,19 1298,8 140,-8 276,163 276,163 0,0 -98,-397 -32,-717 67,-321 175,-342 175,-342l-143 -20 -1618 0z"/>
  <path class="fil12" d="M8226 11439c72,152 -77,414 -25,490 52,75 351,10 546,-147 196,-157 566,-192 566,-192l-1087 -151z"/>
  <path class="fil15" d="M8529 12734c592,22 1215,12 1215,-76 0,-88 -27,-151 -485,-115 -458,35 -770,84 -908,53 -138,-31 178,138 178,138z"/>
  <path class="fil15" d="M14839 11699l-8337 0c-36,0 -64,-28 -64,-64l0 -32c0,-36 28,-65 64,-65l8337 0c36,0 65,29 65,65l0 32c0,36 -29,64 -65,64z"/>
  <path class="fil7" d="M15947 9379c58,203 -82,411 -237,455 -154,43 -264,-94 -321,-296 -58,-202 21,-402 175,-445 154,-44 326,84 383,286z"/>
  <path class="fil7" d="M15083 13296c0,0 395,614 448,640 54,27 187,34 137,134 -50,100 -70,494 -117,514 -46,20 -447,66 -387,0 60,-67 97,-34 127,-154 31,-120 73,-347 17,-393 -57,-47 -404,-468 -404,-468l179 -273z"/>
  <path class="fil7" d="M13093 13559c0,0 -481,792 -570,864 -88,71 -382,178 -142,195 240,18 356,-80 507,-124 152,-45 338,-71 267,-187 -71,-116 -41,-368 112,-528 154,-161 -174,-220 -174,-220z"/>
  <path class="fil3" d="M15545 11723c0,0 -1189,-31 -1661,356 -276,418 -943,1652 -995,1788 35,36 236,100 325,91 262,-313 609,-584 747,-829 170,-303 223,-454 498,-481 276,-26 899,-115 1086,-115 187,0 0,-810 0,-810z"/>
  <polygon class="fil15" points="16582,14620 16520,14620 16073,12755 16210,12755 "/>
  <polygon class="fil15" points="14715,14620 14777,14620 15290,12689 15153,12689 "/>
  <path class="fil3" d="M16223 11642l-692 119c0,0 -919,8 -1339,87 -382,71 -438,505 0,1103 249,340 460,611 891,916 109,-80 151,-111 181,-304 -31,-43 -112,-311 -137,-363 -238,-498 -556,-679 -560,-728 53,-87 1414,452 1684,135 259,-302 -28,-965 -28,-965z"/>
  <path class="fil16" d="M16251 10076c-182,-26 -367,9 -541,135 -151,154 -323,409 -312,829 13,534 -83,568 17,715 418,173 1132,913 964,119 -122,-575 267,-1003 -47,-1641 -26,-52 -57,-102 -81,-157z"/>
  <path class="fil17" d="M15398 11241c-8,279 -48,360 -18,448 170,17 482,85 560,194 89,125 178,143 136,51 -42,-92 -151,-223 18,-671 169,-448 249,-750 83,-1062l-779 1040z"/>
  <path class="fil7" d="M16251 10076c-112,-266 -139,-564 -139,-564l-294 87c0,0 167,374 7,507 -34,28 -74,63 -115,105 174,-126 359,-161 541,-135z"/>
  <path class="fil10" d="M16121 9583c-18,-16 -40,-35 -62,-55l-240 71 0 1c5,13 66,155 74,292 72,-43 150,-114 239,-237 -5,-27 -8,-52 -11,-72z"/>
  <path class="fil7" d="M16045 10159c-302,106 -269,425 -547,895 -144,243 -278,239 -278,239 0,0 -338,3 -746,-47 -256,-31 -273,45 -95,108 359,129 732,267 1032,234 300,-34 814,-800 840,-1000 37,-275 -54,-482 -206,-429z"/>
  <path class="fil15" d="M15889 12825c-18,0 -38,0 -57,-1 -246,-6 -413,-40 -548,-67 -159,-33 -247,-50 -350,-1 -35,17 -77,2 -93,-33 -17,-35 -2,-76 33,-93 145,-70 268,-45 438,-10 129,26 290,59 523,64 263,7 424,-32 506,-124 73,-81 95,-217 68,-426 -9,-72 -18,-131 -26,-183 -23,-146 -38,-243 -19,-392 17,-139 63,-324 170,-684 11,-37 50,-58 87,-47 37,11 58,50 47,87 -200,673 -190,738 -147,1015 8,53 17,113 27,186 32,253 0,424 -103,538 -106,117 -279,171 -556,171z"/>
  <path class="fil17" d="M13126 14227c-319,156 -491,245 -593,237 -24,-2 -44,-5 -61,-7 -114,67 -295,146 -91,161 240,18 356,-80 507,-124 152,-45 338,-71 267,-187 -13,-22 -23,-49 -29,-80z"/>
  <path class="fil17" d="M15566 13949c-8,253 -43,503 -197,550 -41,13 -78,15 -111,10 -24,30 -54,31 -94,75 -60,66 341,20 387,0 47,-20 67,-414 117,-514 41,-82 -42,-102 -102,-121z"/>
  <path class="fil18" d="M14338 11553l-1013 0c-27,0 -52,-16 -63,-41l-410 -881c-16,-35 -1,-76 34,-93 35,-16 77,-1 93,34l391 841 968 0c38,0 70,31 70,70 0,38 -32,70 -70,70z"/>
  <path class="fil7" d="M14550 11255c-205,-3 -408,-125 -509,-107 -101,17 -430,246 -388,255 41,9 302,-127 311,-129 9,-2 65,94 205,129 139,35 1,-104 433,26 281,85 -52,-174 -52,-174z"/>
  <path class="fil19" d="M16221 9834l30 242c0,0 -264,16 -396,90 -132,74 -326,288 -326,288l158 -273 23 -175 511 -172z"/>
  <path class="fil19" d="M16109 10130c-197,-37 -288,140 -416,427 -127,288 -345,637 -388,683 -43,45 -730,0 -730,0 0,0 -21,198 0,222 21,24 140,21 140,21 0,0 47,38 92,68 44,30 421,86 596,77 175,-9 335,-24 359,-50 23,-27 501,-763 531,-1027 29,-264 -84,-402 -184,-421z"/>
  <path class="fil4" d="M15529 8920c-372,18 -314,577 -314,577 0,0 97,30 299,-3 -16,-60 -9,-214 -9,-214 0,0 24,125 53,201 43,19 92,2 174,-18 42,178 162,253 243,279 91,28 186,62 293,9 107,-54 48,-600 -8,-709 -86,-165 -227,-313 -472,-235 -122,39 -259,113 -259,113z"/>
  <path class="fil4" d="M16176 9585l152 222c0,0 -169,421 321,612 384,149 339,413 166,677 -174,265 103,497 103,497 0,0 43,-294 416,-349 508,-76 652,-759 273,-1100 -315,-283 -411,-49 -623,-302 -213,-254 -615,-83 -615,-83l-147 -214 -46 40z"/>
  <path class="fil4" d="M17782 10831c-2,0 -4,-1 -6,-2 -6,-3 -8,-11 -5,-17 128,-234 23,-518 -29,-595 -6,-8 -11,-16 -17,-25 -51,-80 -116,-181 -459,-243 -82,-14 -149,-63 -219,-115 -147,-108 -312,-229 -673,-64 -6,3 -13,1 -16,-5 -3,-7 0,-14 6,-17 373,-171 545,-45 697,66 68,50 133,98 210,111 353,64 421,170 475,254 5,9 11,17 16,25 32,46 71,142 87,252 14,95 15,237 -57,368 -2,4 -6,7 -10,7z"/>
  <path class="fil4" d="M16094 9811c-24,0 -50,-2 -78,-6 -130,-20 -304,-94 -318,-508 0,-7 5,-12 12,-12 7,-1 12,5 13,11 5,172 39,299 101,378 47,60 109,94 195,107 121,18 201,-5 239,-67 3,-6 11,-8 16,-4 6,3 8,11 5,16 -34,57 -96,85 -185,85z"/>
  <path class="fil20" d="M4483 10105c-431,247 -1032,1273 -905,1441 127,167 807,-273 807,-273l98 -1168z"/>
  <path class="fil4" d="M5290 8915c-165,-5 -104,-127 -293,-78 -100,25 -26,66 -156,53 -129,-13 -193,-27 -209,58 -17,84 -25,111 -87,124 -62,14 -90,125 0,201 91,75 47,106 27,169 -20,62 48,66 85,124 37,58 -34,69 19,119 54,50 128,46 128,46l225 -431 261 -385z"/>
  <path class="fil21" d="M8649 14087c0,0 241,7 428,-66 186,-74 313,-187 280,-54 -33,134 -187,363 -320,385 -134,22 -181,169 -254,169 -73,0 -180,-169 -367,-254 -170,-77 233,-180 233,-180z"/>
  <path class="fil21" d="M6756 14065c0,0 101,139 277,236 182,100 391,148 261,194 -130,45 -320,80 -505,26 -130,-37 -282,-45 -322,-107 -41,-61 47,-215 11,-446 -30,-184 278,97 278,97z"/>
  <path class="fil5" d="M5631 11825c0,0 1392,521 1504,667 112,146 1575,1473 1575,1571 0,97 -249,275 -249,275 0,0 -1255,-769 -1566,-1161 -312,-391 -1072,-580 -1476,-616 -404,-37 212,-736 212,-736z"/>
  <path class="fil3" d="M5685 11825c0,0 952,-35 1156,0 205,36 654,35 360,864 -230,650 -306,1472 -306,1472l-457 112c0,0 18,-1478 236,-1872 -159,26 -451,77 -855,193 -751,215 -1162,107 -1162,107l-112 -391 1140 -485z"/>
  <polygon class="fil22" points="4889,9367 4657,10054 4951,10248 5117,9654 "/>
  <path class="fil23" d="M4977 10154l140 -500 -228 -287 -85 251c30,227 101,415 173,536z"/>
  <path class="fil22" d="M5483 9483c7,209 -95,390 -258,406 -164,16 -313,-139 -333,-347 -21,-209 95,-390 258,-407 163,-16 321,18 333,348z"/>
  <path class="fil24" d="M4545 10034c-714,483 -270,1262 -113,1831 134,485 129,779 149,779 20,0 511,-74 792,-327 280,-254 469,-500 469,-500 0,0 -359,-64 -476,-528 -60,-236 -33,-364 -168,-738 -136,-373 -653,-517 -653,-517z"/>
  <path class="fil8" d="M4545 10034l77 -187c0,0 242,160 339,236 97,76 156,93 156,93 0,0 35,269 13,244 -287,-306 -585,-386 -585,-386z"/>
  <polygon class="fil15" points="4229,14620 4291,14620 4738,12755 4601,12755 "/>
  <polygon class="fil15" points="6096,14620 6034,14620 5521,12689 5658,12689 "/>
  <path class="fil15" d="M4923 12825c-250,0 -408,-45 -509,-143 -125,-122 -151,-311 -151,-557 -1,-518 -30,-625 -175,-941 -16,-35 -1,-76 34,-92 35,-16 76,-1 93,34 154,334 187,457 188,999 0,249 32,381 109,457 79,77 222,109 464,102 233,-5 394,-38 523,-64 170,-35 293,-60 438,10 35,17 50,58 33,93 -16,35 -58,50 -93,33 -103,-49 -191,-32 -350,1 -134,27 -302,61 -548,67 -19,1 -38,1 -56,1z"/>
  <path class="fil25" d="M8009 11545l-1013 0c-39,0 -70,-32 -70,-70 0,-39 31,-70 70,-70l968 0 391 -841c16,-35 58,-50 93,-34 35,17 50,58 33,93l-409 881c-11,25 -36,41 -63,41z"/>
  <path class="fil20" d="M4572 10736c0,0 178,543 398,768 220,225 663,300 802,291 -111,-44 -321,-171 -406,-506 -60,-236 -33,-364 -168,-738 -101,-277 -412,-428 -565,-487 191,138 431,364 504,537 82,191 -565,135 -565,135z"/>
  <path class="fil22" d="M7028 11213c0,0 307,-140 340,-127 34,13 374,219 374,253 0,34 -300,-127 -300,-127 0,0 33,89 13,132 -20,42 -251,42 -459,29 -208,-13 32,-160 32,-160z"/>
  <path class="fil24" d="M4581 10317c-283,580 688,1168 1264,1220 576,53 1260,-136 1260,-136l-77 -188c0,0 -1154,-151 -1183,-172 -29,-21 -1160,-936 -1264,-724z"/>
  <path class="fil22" d="M4949 9386c27,69 7,141 -43,160 -50,19 -111,-22 -138,-91 -26,-69 -7,-140 43,-159 50,-19 112,21 138,90z"/>
  <path class="fil4" d="M5483 8945c78,-33 167,-68 139,65 -12,58 0,42 21,95 21,53 -52,95 -76,125 -24,30 35,62 -13,98 -47,35 -110,-14 -154,0 -132,39 -116,-65 -190,-86 -74,-22 -110,-19 -125,29 -14,47 52,203 -4,189 -56,-15 -69,111 -84,182 -15,71 -54,-49 -52,-131 4,-125 -27,-177 -73,-212 -46,-35 -65,-353 157,-364 223,-12 224,-34 319,-54 95,-20 100,79 135,64z"/>
  <path class="fil26" d="M17955 12573c142,130 81,259 -24,500 -105,240 -124,1128 -124,1128l87 -12c0,0 -13,-913 104,-1159 118,-247 167,-370 272,-290 105,80 -315,-167 -315,-167z"/>
  <path class="fil27" d="M17877 12406c18,-77 120,-160 257,-231 -21,114 -86,299 -18,337 91,51 9,-208 44,-350 128,-62 283,-114 425,-139 0,0 0,1 -1,1 -80,204 -185,284 -141,315 32,23 138,-212 277,-332 105,-6 194,8 246,50 82,64 136,121 54,316 -46,34 -106,58 -177,65 -185,18 -271,24 -141,86 63,30 169,-2 255,-21 -28,51 -62,110 -104,176 -26,42 -55,79 -86,110 -60,12 -112,12 -139,0 -87,-37 -309,-154 -364,-105 -55,49 411,79 379,202 -226,130 -484,68 -530,-51 -61,-161 -287,-198 -236,-429z"/>
  <path class="fil26" d="M18344 13283c-247,-185 -500,-13 -629,185 -130,197 -37,641 -37,641 0,0 49,0 49,-19 0,-18 -136,-524 185,-752 201,-143 345,-74 364,-6 18,68 -80,191 -80,191l148 -240z"/>
  <path class="fil27" d="M17776 12902c247,0 327,383 260,605 -68,222 -161,635 -161,635l-62 -62c0,0 235,-580 179,-839 -55,-259 -191,-302 -216,-302 -24,0 0,-37 0,-37z"/>
  <path class="fil26" d="M17983 13508c18,-23 39,-42 65,-54 -3,18 -7,36 -12,53 -31,101 -67,242 -98,365 -2,-16 -6,-40 -13,-78 -2,-9 -3,-18 -4,-28 25,-83 47,-172 62,-258z"/>
  <path class="fil27" d="M18051 13510c469,-197 222,-468 635,-289 29,12 64,44 100,88 -37,10 -81,18 -131,11 -123,-19 -80,80 123,104 39,5 70,11 96,21 97,186 140,431 -65,516 -40,17 -90,26 -146,30 -63,-50 16,-342 -82,-301 -94,38 29,249 12,302 -92,-1 -194,-16 -292,-41 -39,-21 -69,-50 -78,-89 -31,-129 173,-209 179,-320 6,-102 -75,224 -287,272 -192,-90 -283,-212 -64,-304z"/>
  <path class="fil27" d="M17717 13161c49,-105 -80,-129 -74,-49 5,71 6,244 -67,291 -126,-14 -297,-65 -426,-142 -1,-10 0,-21 6,-32 55,-111 413,-203 302,-240 -89,-30 -243,144 -368,232 -75,-57 -126,-125 -126,-201 0,-102 125,-218 286,-274 72,8 140,47 245,107 155,88 119,-54 -28,-139 127,7 254,61 347,190 0,0 -9,56 49,141 160,234 -24,370 -244,361 12,-62 64,-172 98,-245z"/>
  <path class="fil26" d="M18329 13272c121,93 255,202 419,276 165,74 132,315 132,315 0,0 24,-208 -113,-279 -137,-71 -227,-156 -331,-173 -105,-16 -162,-33 -162,-33 0,0 33,-65 14,-90 -20,-25 41,-16 41,-16z"/>
  <path class="fil26" d="M18923 12178c-441,118 -764,400 -825,468 -60,69 -60,88 -60,88l47 88 22 -11c0,0 -36,-74 57,-170 161,-165 357,-296 491,-354 134,-57 268,-109 268,-109z"/>
  <path class="fil18" d="M17705 14620l169 0c120,0 217,-97 217,-217l0 -387 -603 0 0 387c0,120 97,217 217,217z"/>
  <polygon class="fil0" points="18091,14128 17488,14128 17488,14085 18091,14085 "/>
  <polygon class="fil0" points="18091,14188 17488,14188 17488,14163 18091,14163 "/>
  <path class="fil11" d="M10555 5927c0,-457 -368,-828 -823,-834 -458,-6 -838,363 -845,820 -3,223 81,427 221,579 64,69 100,161 100,256l0 374c0,241 198,439 440,439l146 0c242,0 440,-198 440,-439l0 -374c0,-96 37,-187 101,-258 136,-148 220,-346 220,-563z"/>
  <path class="fil28" d="M9784 7389l-126 0c-208,0 -378,-170 -378,-378l0 -322c0,-82 -31,-160 -87,-220 -120,-131 -192,-306 -189,-498 6,-391 327,-706 717,-706 3,0 6,0 9,0 392,5 708,325 708,718 0,186 -71,357 -188,484 -56,61 -88,140 -88,222l0 322c0,208 -170,378 -378,378z"/>
  <path class="fil29" d="M9844 6898l-274 0c-13,0 -24,-10 -25,-23 -1,-5 -52,-535 -289,-684 -12,-7 -15,-22 -8,-34 7,-12 23,-15 34,-8 232,145 297,591 310,699l226 0c-1,-37 1,-108 22,-200 29,-123 98,-309 269,-495 9,-10 25,-10 35,-1 10,9 11,25 1,35 -311,339 -277,680 -276,683 1,7 -2,14 -6,19 -5,6 -12,9 -19,9z"/>
  <path class="fil29" d="M9343 5941c-16,0 -31,3 -42,10 -25,15 -37,49 -38,104 0,57 12,94 38,110 62,37 205,-32 343,-105 -111,-60 -228,-119 -301,-119zm407 119c137,73 281,143 344,105 27,-15 40,-53 41,-111 1,-55 -11,-90 -35,-105 -61,-37 -210,37 -350,111zm300 166c-93,0 -220,-66 -353,-138 -172,92 -332,174 -422,119 -42,-25 -62,-75 -62,-153 1,-73 22,-122 63,-146 90,-53 250,32 421,124 175,-93 339,-180 429,-125 40,24 60,74 59,148 -1,77 -23,128 -65,153 -21,12 -44,18 -70,18z"/>
  <path class="fil29" d="M9809 7680l-160 0c-56,0 -102,-46 -102,-102l0 -15c0,-57 46,-103 102,-103l160 0c56,0 102,46 102,103l0 15c0,56 -46,102 -102,102z"/>
  <path class="fil29" d="M9184 6853l0 264c0,253 207,461 460,461l154 0c253,0 460,-208 460,-461l0 -264 -1074 0z"/>
  <path class="fil30" d="M10253 6936l-1051 0c-33,0 -60,-27 -60,-60l0 -6c0,-33 27,-60 60,-60l1051 0c33,0 60,27 60,60l0 6c0,33 -27,60 -60,60z"/>
  <path class="fil30" d="M10257 7031l-1044 129c-32,4 -62,-20 -66,-52l-1 -7c-4,-33 19,-63 52,-67l1044 -129c32,-4 62,20 66,53l1 6c4,33 -19,63 -52,67z"/>
  <path class="fil30" d="M10257 7214l-1044 128c-32,5 -62,-19 -66,-52l-1 -6c-4,-33 19,-63 52,-67l1044 -129c32,-4 62,19 66,52l1 7c4,32 -19,63 -52,67z"/>
  <path class="fil30" d="M10193 7409l-869 107c-30,4 -58,-17 -62,-47l-2 -17c-4,-30 18,-57 48,-61l869 -107c30,-4 58,17 62,47l2 17c3,30 -18,57 -48,61z"/>
  <path class="fil30" d="M17719 7646l560 0c0,307 -253,560 -560,560 -308,0 -561,-253 -561,-560 0,-307 253,-560 561,-560l0 560z"/>
  <path class="fil31" d="M18373 7568c0,-310 -251,-561 -561,-561l0 561 561 0z"/>
  <path class="fil31" d="M17252 7568c0,309 251,560 560,560 -307,0 -560,-253 -560,-560z"/>
  <path class="fil31" d="M17812 7007c-309,0 -560,251 -560,561 0,-308 253,-561 560,-561z"/>
  <path class="fil31" d="M17812 8128c310,0 561,-251 561,-560 0,307 -253,560 -561,560z"/>
  <g id="_655133304">
   <polygon class="fil30" points="6876,7629 6754,7629 6754,7275 6876,7275 "/>
   <polygon class="fil30" points="8444,7629 8322,7629 8322,7391 8444,7391 "/>
   <polygon class="fil30" points="7394,7629 7272,7629 7272,6801 7394,6801 "/>
   <polygon class="fil30" points="7654,7629 7531,7629 7531,7257 7654,7257 "/>
   <polygon class="fil30" points="7913,7629 7791,7629 7791,7152 7913,7152 "/>
   <polygon class="fil30" points="7135,7629 7013,7629 7013,7042 7135,7042 "/>
   <polygon class="fil30" points="8173,7629 8051,7629 8051,6905 8173,6905 "/>
  </g>
  <path class="fil8" d="M3456 6581l-285 -174c-66,108 -185,180 -321,180l0 0c-19,0 -39,-2 -58,-5l-51 330c36,6 72,8 109,8 257,0 481,-135 606,-339z"/>
  <path class="fil27" d="M3476 5874c-125,66 -117,61 -295,157 29,54 46,115 46,179 0,72 -21,140 -56,197 230,140 248,151 286,173 66,-107 104,-234 104,-370 0,-121 -31,-236 -85,-336z"/>
  <path class="fil21" d="M2184 5965l313 115c53,-143 191,-246 353,-246 143,0 268,80 331,197l294 -158c-120,-222 -355,-373 -625,-373l0 0c-305,0 -566,194 -666,465z"/>
  <path class="fil31" d="M2741 6912l51 -330c-180,-28 -318,-184 -318,-372 0,-45 9,-89 23,-130l-313 -115c-28,76 -44,159 -44,245 0,355 261,649 601,702z"/>
  <path class="fil0" d="M2176 5988l314 116c4,-16 10,-32 17,-47l-314 -115c-6,15 -12,31 -17,46z"/>
  <path class="fil32" d="M3469 6559c-20,-12 -34,-21 -80,-48l-205 -126c-8,15 -17,29 -26,43 104,64 165,101 204,124l81 50c9,-14 18,-28 26,-43zm-276 -505l113 -62c60,-32 84,-45 145,-76l37 -19c-8,-16 -16,-31 -25,-46l-180 97c-28,15 -64,35 -114,62 9,14 17,29 24,44zm-376 531c-17,-1 -33,-4 -49,-8l-52 331c17,3 33,5 50,7l51 -330z"/>
  <path class="fil3" d="M6966 6348l-2070 0c-22,0 -41,-18 -41,-41l0 -890c0,-23 19,-41 41,-41l2070 0c22,0 40,18 40,41l0 890c0,23 -18,41 -40,41z"/>
  <path class="fil0" d="M6915 6302l-1968 0c-18,0 -33,-14 -33,-33l0 -605c0,-18 15,-33 33,-33l1968 0c18,0 33,15 33,33l0 605c0,19 -15,33 -33,33z"/>
  <path class="fil0" d="M5010 5523l-48 0c-10,0 -18,-8 -18,-18l0 -39c0,-10 8,-19 18,-19l48 0c10,0 18,9 18,19l0 39c0,10 -8,18 -18,18z"/>
  <path class="fil0" d="M5163 5523l-47 0c-11,0 -19,-8 -19,-18l0 -39c0,-10 8,-19 19,-19l47 0c10,0 19,9 19,19l0 39c0,10 -9,18 -19,18z"/>
  <path class="fil0" d="M5316 5523l-47 0c-10,0 -19,-8 -19,-18l0 -39c0,-10 9,-19 19,-19l47 0c11,0 19,9 19,19l0 39c0,10 -8,18 -19,18z"/>
  <path class="fil3" d="M6865 5778l-1076 0c-17,0 -32,-14 -32,-32 0,-18 15,-32 32,-32l1076 0c18,0 32,14 32,32 0,18 -14,32 -32,32z"/>
  <path class="fil3" d="M6056 6275l-1076 0c-17,0 -32,-15 -32,-32 0,-18 15,-33 32,-33l1076 0c18,0 32,15 32,33 0,17 -14,32 -32,32z"/>
  <path class="fil3" d="M6254 6275l-111 0c-6,0 -11,-5 -11,-11l0 -43c0,-6 5,-11 11,-11l111 0c6,0 11,5 11,11l0 43c0,6 -5,11 -11,11z"/>
  <path class="fil3" d="M6422 6275l-112 0c-6,0 -11,-5 -11,-11l0 -43c0,-6 5,-11 11,-11l112 0c6,0 11,5 11,11l0 43c0,6 -5,11 -11,11z"/>
  <path class="fil3" d="M6875 5919l-1781 0c-12,0 -22,-10 -22,-22 0,-12 10,-22 22,-22l1781 0c12,0 22,10 22,22 0,12 -10,22 -22,22z"/>
  <path class="fil3" d="M6875 6013l-1781 0c-12,0 -22,-10 -22,-22 0,-12 10,-22 22,-22l1781 0c12,0 22,10 22,22 0,12 -10,22 -22,22z"/>
  <path class="fil33" d="M12248 5729l-918 0 0 -535 691 0c89,89 139,138 227,227l0 308z"/>
  <polygon class="fil31" points="12004,5194 12004,5479 12248,5479 12248,5424 12019,5195 "/>
  <polygon class="fil33" points="12021,5194 12021,5424 12248,5424 "/>
  <path class="fil0" d="M11843 5395l-410 0c-8,0 -16,-8 -16,-17 0,-9 8,-16 16,-16l410 0c9,0 16,7 16,16 0,9 -7,17 -16,17z"/>
  <path class="fil0" d="M11843 5478l-410 0c-8,0 -16,-8 -16,-17 0,-9 8,-16 16,-16l410 0c9,0 16,7 16,16 0,9 -7,17 -16,17z"/>
  <path class="fil0" d="M11843 5565l-410 0c-8,0 -16,-7 -16,-16 0,-9 8,-17 16,-17l410 0c9,0 16,8 16,17 0,9 -7,16 -16,16z"/>
  <path class="fil25" d="M11789 5235c0,15 -12,27 -27,27 -15,0 -28,-12 -28,-27 0,-15 13,-28 28,-28 15,0 27,13 27,28z"/>
  <polygon class="fil34" points="8165,5911 7592,5800 7726,5109 8299,5220 "/>
  <path class="fil30" d="M8178 5519l-304 -59c-8,-2 -14,-10 -12,-18 2,-8 9,-13 18,-12l303 59c8,2 14,10 12,18 -1,8 -9,13 -17,12z"/>
  <path class="fil30" d="M8163 5595l-304 -59c-8,-2 -13,-10 -12,-18 2,-8 10,-13 18,-12l304 59c8,2 13,10 12,18 -2,8 -10,13 -18,12z"/>
  <path class="fil30" d="M8148 5673l-304 -59c-8,-2 -13,-10 -12,-18 2,-8 10,-13 18,-12l304 59c8,2 13,10 11,18 -1,8 -9,13 -17,12z"/>
  <path class="fil25" d="M7972 5202c-3,13 -16,22 -29,20 -14,-3 -23,-16 -20,-30 3,-13 16,-22 29,-19 14,2 23,15 20,29z"/>
  <path class="fil30" d="M12672 6478l-887 -93 59 -556 703 74c64,79 100,123 165,203l-40 372z"/>
  <polygon class="fil0" points="12535,5942 11874,5873 11825,6342 12646,6428 12675,6154 12514,6137 "/>
  <path class="fil30" d="M12445 6113l-428 -45c-9,-1 -17,-10 -16,-20 1,-10 10,-17 20,-16l428 45c10,1 17,10 16,20 -1,10 -10,17 -20,16z"/>
  <path class="fil30" d="M12435 6207l-428 -45c-9,-1 -17,-10 -15,-20 1,-10 9,-17 19,-16l428 45c10,1 17,10 16,20 -1,10 -10,17 -20,16z"/>
  <path class="fil30" d="M12425 6305l-428 -45c-10,-1 -17,-10 -16,-19 1,-10 10,-17 20,-16l428 45c9,1 17,10 15,19 -1,10 -9,17 -19,16z"/>
  <path class="fil25" d="M12203 5957c0,15 -12,27 -27,27 -15,0 -28,-12 -28,-27 0,-15 13,-28 28,-28 15,0 27,13 27,28z"/>
  <path class="fil27" d="M17080 5523c0,169 -137,306 -307,306 -169,0 -306,-137 -306,-306 0,-169 137,-306 306,-306 170,0 307,137 307,306z"/>
  <path class="fil0" d="M16743 5628l-1 0c-4,0 -8,-2 -10,-5l-83 -95c-6,-6 -5,-15 1,-21 6,-5 16,-5 21,2l73 82 166 -163c6,-5 16,-5 21,1 6,6 6,15 0,21l-178 174c-2,3 -6,4 -10,4z"/>
  <path class="fil3" d="M2975 8366l1766 0c45,0 82,-37 82,-82l0 -631c0,-45 -37,-82 -82,-82l-1766 0c-45,0 -82,37 -82,82l0 631c0,45 37,82 82,82z"/>
  <path class="fil3" d="M4590 8246l0 439 -506 -506c0,0 496,67 506,67z"/>
  <path class="fil0" d="M3062 8287l1591 0c39,0 70,-31 70,-70l0 -498c0,-38 -31,-69 -70,-69l-1591 0c-38,0 -69,31 -69,69l0 498c0,39 31,70 69,70z"/>
  <path class="fil3" d="M3781 7807l781 0c19,0 35,-15 35,-34 0,-19 -16,-34 -35,-34l-781 0c-19,0 -35,15 -35,34 0,19 16,34 35,34z"/>
  <path class="fil3" d="M3128 7938l1450 0c10,0 19,-8 19,-19l0 0c0,-11 -9,-19 -19,-19l-1450 0c-11,0 -19,8 -19,19l0 0c0,11 8,19 19,19z"/>
  <path class="fil3" d="M3128 8013l1450 0c10,0 19,-9 19,-19l0 0c0,-11 -9,-20 -19,-20l-1450 0c-11,0 -19,9 -19,20l0 0c0,10 8,19 19,19z"/>
  <path class="fil30" d="M16033 7810l93 0c20,0 35,-15 35,-35l0 -76c0,-20 -15,-36 -35,-36l-93 0c-19,0 -35,16 -35,36l0 76c0,20 16,35 35,35z"/>
  <path class="fil30" d="M15737 7810l92 0c20,0 36,-15 36,-35l0 -76c0,-20 -16,-36 -36,-36l-92 0c-20,0 -36,16 -36,36l0 76c0,20 16,35 36,35z"/>
  <path class="fil30" d="M15440 7810l92 0c20,0 36,-15 36,-35l0 -76c0,-20 -16,-36 -36,-36l-92 0c-20,0 -36,16 -36,36l0 76c0,20 16,35 36,35z"/>
 </g>
</svg>
